<?xml version="1.0" encoding="UTF-8" standalone="no"?>
<!-- Generator: Gravit.io -->

<svg
   xmlns:dc="http://purl.org/dc/elements/1.1/"
   xmlns:cc="http://creativecommons.org/ns#"
   xmlns:rdf="http://www.w3.org/1999/02/22-rdf-syntax-ns#"
   xmlns:svg="http://www.w3.org/2000/svg"
   xmlns="http://www.w3.org/2000/svg"
   xmlns:sodipodi="http://sodipodi.sourceforge.net/DTD/sodipodi-0.dtd"
   xmlns:inkscape="http://www.inkscape.org/namespaces/inkscape"
   style="isolation:isolate"
   viewBox="0 0 1024 1024"
   width="1024"
   height="1024"
   version="1.1"
   id="svg21399"
   sodipodi:docname="b-rocket.svg"
   inkscape:version="0.92.3 (2405546, 2018-03-11)">
  <metadata
     id="metadata21403">
    <rdf:RDF>
      <cc:Work
         rdf:about="">
        <dc:format>image/svg+xml</dc:format>
        <dc:type
           rdf:resource="http://purl.org/dc/dcmitype/StillImage" />
      </cc:Work>
    </rdf:RDF>
  </metadata>
  <sodipodi:namedview
     pagecolor="#ffffff"
     bordercolor="#666666"
     borderopacity="1"
     objecttolerance="10"
     gridtolerance="10"
     guidetolerance="10"
     inkscape:pageopacity="0"
     inkscape:pageshadow="2"
     inkscape:window-width="1366"
     inkscape:window-height="705"
     id="namedview21401"
     showgrid="false"
     inkscape:zoom="0.32593203"
     inkscape:cx="512"
     inkscape:cy="512"
     inkscape:window-x="-8"
     inkscape:window-y="-8"
     inkscape:window-maximized="1"
     inkscape:current-layer="svg21399" />
  <defs
     id="defs21385">
    <clipPath
       id="_clipPath_VAdZcgD6gQyE8KqT1JzeMMBwWVxwd297">
      <rect
         width="1024"
         height="1024"
         id="rect21382" />
    </clipPath>
  </defs>
  <path
     style="fill:#000000"
     d="M 855.40039 63.099609 C 785.40039 63.099609 697.5 75.900828 620.5 97.298828 C 578.307 109.02583 540.599 122.79883 508.5 138.29883 C 476.401 153.79883 448.198 172.40161 430 190.59961 C 411.802 208.79961 391.69739 240.09839 365.40039 288.40039 C 359.30139 299.60139 353 311.59839 346.5 324.40039 C 293.198 339.59839 229.802 377.099 203 394 C 142.307 432.271 92.901734 472.00061 71.302734 500.59961 C 64.500734 509.60261 62.301391 521.29917 65.400391 532.20117 C 68.499391 543.09917 76.500609 551.90039 87.099609 555.90039 C 97.698609 559.90039 101.09973 561.20117 108.80273 564.20117 C 143.68873 577.79217 186.59973 593.59839 219.80273 609.90039 L 219.69727 610.09961 L 412.30273 802.90039 C 428.59973 836.20039 444.90173 879.29961 458.30273 914.59961 C 461.21973 922.29261 464.00061 929.59883 466.59961 936.29883 C 469.19861 942.99983 479.40173 954.901 490.30273 958 C 493.59973 958.901 496.90027 959.40039 500.19727 959.40039 C 503.49927 959.40039 515.59839 956.90161 521.90039 952.09961 C 550.40539 930.38061 590.401 881.20039 628.5 820.40039 C 645.339 793.52539 682.80127 730.29839 698.19727 676.90039 C 711.19727 670.29839 723.49939 663.90117 734.90039 657.70117 C 783.48339 631.27617 816.40173 609.49939 832.80273 592.90039 C 879.51673 545.61639 921.40027 445 944.19727 323 C 954.14027 269.807 959.69739 215.70117 959.90039 170.70117 C 960.09839 125.70117 956.69861 109.09883 953.59961 96.298828 L 948.5 74.798828 L 927 69.599609 C 914.698 66.599609 892.40039 63.099609 855.40039 63.099609 z M 855.5 135 C 868.401 135 878.69739 135.50017 886.90039 136.20117 C 887.59839 145.00017 888.099 156.20117 888 170.20117 C 887.708 211.09917 882.698 260.59917 873.5 309.70117 C 864.302 358.79917 849.30273 413.40039 832.30273 455.40039 C 815.30273 497.40039 798.59839 525.29839 781.90039 541.90039 L 781.69727 542.09961 C 777.69727 546.20161 759.901 561.99983 700.5 594.29883 C 661.74 615.37483 613.09839 638.99983 555.90039 664.79883 C 508.73339 686.07583 464.09961 704.79839 430.09961 718.90039 L 304.5 592.90039 C 318.5 558.79839 337.401 514.09961 358.5 467.09961 C 384.328 409.56861 408.09839 361.00061 428.90039 322.59961 C 460.89039 263.54261 477.00061 245.49939 481.09961 241.40039 C 493.40161 229.09839 514.302 215.50061 540 203.09961 C 565.698 190.70161 601.80139 177.20117 639.90039 166.70117 C 711.07739 147.08317 791.599 135 855.5 135 z M 640.12891 319 C 634.56137 318.98755 628.94848 319.70264 623.42773 321.18164 C 601.34473 327.10164 584.08888 344.35345 578.17188 366.43945 C 572.25487 388.52545 578.57323 412.09081 594.74023 428.25781 C 610.90623 444.42381 634.47364 450.74031 656.55664 444.82031 C 678.64564 438.90431 695.8955 421.65045 701.8125 399.56445 C 707.7285 377.47845 701.41614 353.91309 685.24414 337.74609 C 673.11889 325.61934 656.8315 319.03736 640.12891 319 z M 300.19727 421.40039 C 297.69727 426.70039 295.19873 432.09961 292.80273 437.59961 C 276.09973 475.87561 260.09827 512.29961 247.19727 543.09961 C 221.80127 530.90161 192.802 519.29917 165.5 508.70117 C 184.802 492.90117 210.40173 474.299 241.30273 455 C 261.53673 442.359 281.49927 430.90039 300.19727 421.40039 z M 601.09961 723.40039 C 591.50061 741.99939 580.099 761.90161 567.5 782.09961 C 548.198 812.90161 529.59973 838.49939 513.80273 857.90039 C 503.30273 830.70039 491.599 801.70083 479.5 776.29883 C 510.401 763.40083 547.09961 747.70039 585.59961 730.40039 C 590.82361 728.05139 596.00061 725.70039 601.09961 723.40039 z M 185.19727 750.79883 C 146.09827 750.79883 113.09839 776.70039 102.40039 812.40039 L 64.802734 936.59961 C 64.302734 938.20161 64 939.90161 64 941.59961 C 64 951.20161 71.698734 959 81.302734 959 C 83.099734 959 84.698734 958.70117 86.302734 958.20117 L 210.30273 920.5 C 245.80273 909.701 271.69727 876.599 271.69727 837.5 C 271.69727 789.599 232.99927 750.79883 185.19727 750.79883 z "
     id="path21391" />
</svg>
