<?xml version="1.0" standalone="no"?><!-- Generator: Gravit.io --><svg xmlns="http://www.w3.org/2000/svg" xmlns:xlink="http://www.w3.org/1999/xlink" style="isolation:isolate" viewBox="107.533 993.351 1144.935 333.297" width="1144.935" height="333.297"><g><path d="M 828.693 1296.553 L 967.342 1157.905 C 974.414 1150.832 986.123 1150.598 993.472 1157.382 L 993.528 1157.433 C 1000.877 1164.217 1001.102 1175.467 994.03 1182.539 L 855.381 1321.187 C 848.309 1328.26 836.6 1328.494 829.251 1321.71 L 829.195 1321.659 C 821.846 1314.875 821.621 1303.625 828.693 1296.553 Z" style="stroke:none;fill:#FF0046;stroke-miterlimit:10;"/><path d="M 317.226 1268.578 L 469.508 1145.06 C 477.276 1138.759 488.946 1139.741 495.552 1147.25 L 495.602 1147.307 C 502.208 1154.817 501.265 1166.029 493.497 1172.33 L 341.215 1295.848 C 333.447 1302.149 321.777 1301.167 315.171 1293.658 L 315.121 1293.601 C 308.515 1286.091 309.458 1274.879 317.226 1268.578 Z" style="stroke:none;fill:#2784FF;stroke-miterlimit:10;"/><path d="M 1081.97 1148.369 L 1220.619 1009.721 C 1227.691 1002.648 1239.4 1002.414 1246.749 1009.198 L 1246.805 1009.249 C 1254.154 1016.033 1254.379 1027.283 1247.307 1034.355 L 1108.658 1173.003 C 1101.586 1180.076 1089.877 1180.31 1082.528 1173.526 L 1082.472 1173.475 C 1075.123 1166.691 1074.898 1155.441 1081.97 1148.369 Z" style="stroke:none;fill:#2784FF;stroke-miterlimit:10;"/><path d="M 112.693 1137.461 L 251.342 998.813 C 258.414 991.74 270.123 991.506 277.472 998.29 L 277.528 998.341 C 284.877 1005.125 285.102 1016.375 278.03 1023.447 L 139.381 1162.095 C 132.309 1169.168 120.6 1169.402 113.251 1162.618 L 113.195 1162.567 C 105.846 1155.783 105.621 1144.533 112.693 1137.461 Z" style="stroke:none;fill:#00FF70;stroke-miterlimit:10;"/></g></svg>