<svg id="Capa_1" data-name="Capa 1" xmlns="http://www.w3.org/2000/svg" viewBox="0 0 1868.12 370.02"><defs><style>.cls-1{fill:#da0046;}.cls-2{fill:#8fff8b;}.cls-3{fill:#4871fa;}</style></defs><title>DIVER LOGO</title><path class="cls-1" d="M1747.89,361A82.82,82.82,0,0,0,1632,359.86l-.13-.13L1513.33,478.24l.1.1-.24.24a82.84,82.84,0,1,0,117.15,117.15l.24-.25.3.31,118.51-118.51-.33-.33A82.83,82.83,0,0,0,1747.89,361Z" transform="translate(-250.28 -250.04)"/><path class="cls-2" d="M2094.14,274.3a82.84,82.84,0,0,0-117-.15l-.1-.1-204,204,.11.12a82.82,82.82,0,0,0,117.12,117.11l.32.32,204-204-.3-.3A82.85,82.85,0,0,0,2094.14,274.3Z" transform="translate(-250.28 -250.04)"/><path class="cls-3" d="M1187.86,536.62c-.53.53-1,1.08-1.51,1.65a83.85,83.85,0,0,1-93.1,15.3l135-135,0,0,.12-.11a28.58,28.58,0,0,0,0-40.43c-.45-.46-.92-.89-1.4-1.3a140.85,140.85,0,1,0,1.28,200.47h0l.12-.12a28.59,28.59,0,0,0-40.43-40.43ZM1069.33,418.31a83.82,83.82,0,0,1,94.71-16.7L1052.64,513A83.8,83.8,0,0,1,1069.33,418.31Z" transform="translate(-250.28 -250.04)"/><path class="cls-3" d="M940.35,336.71A28.62,28.62,0,0,0,903.74,354c-.18.48-.33,1-.48,1.44L831.45,548.86,759.64,355.42c-.15-.48-.31-1-.48-1.46a28.62,28.62,0,0,0-54,19.09l-.05,0,84.65,228a29.13,29.13,0,0,0,17.6,17.67c4.35,1.56,8.84,1.66,13.14,1.66h21.81c4.3,0,8.79-.1,13.14-1.66a29,29,0,0,0,17.6-17.58l84.66-228.08,0,0A28.66,28.66,0,0,0,940.35,336.71Z" transform="translate(-250.28 -250.04)"/><path class="cls-3" d="M534,585.51V279h-.45a28.87,28.87,0,0,0-57.74,0H476v84.53c-19-14.76-43.48-23.52-67.24-26.29A141.64,141.64,0,0,0,291,377.63l.49.51a141.85,141.85,0,0,0,.08,200.08l-.46.46a143,143,0,0,0,184.73,14,29.23,29.23,0,0,0,58.4-1.79C534.28,589,536,587.24,534,585.51Zm-201.56-47.7a83.12,83.12,0,1,1,63.66,24.62A84.39,84.39,0,0,1,332.44,537.81Z" transform="translate(-250.28 -250.04)"/><path class="cls-3" d="M291.14,578.68h0l-.1-.09Z" transform="translate(-250.28 -250.04)"/><path class="cls-3" d="M291,578.59l0,0Z" transform="translate(-250.28 -250.04)"/><path class="cls-3" d="M648.2,363.81a28,28,0,1,0-55.88,3.31V588.61A27.94,27.94,0,1,0,648,591.92c0-.2,0-.4,0-.6h.25V364.8h-.06C648.19,364.47,648.2,364.14,648.2,363.81Z" transform="translate(-250.28 -250.04)"/><path class="cls-3" d="M620.69,308.56A28.58,28.58,0,1,0,592.12,280,28.57,28.57,0,0,0,620.69,308.56Z" transform="translate(-250.28 -250.04)"/><path class="cls-3" d="M1460.2,336.43h0l-26.2-.22h0a140.58,140.58,0,0,0-83.42,27.42c-.56-15-13.35-26.92-28.45-26.92-15.45,0-28.23,12.13-28.23,27.58,0,0-.24-.29-.24-.29h.34V588.45c0,1.09-.38,2.19-.38,3.31a28.15,28.15,0,0,0,56.29,0c0-.68.09-1.36.09-2V473h-.1c.19-20,8.94-41.12,24.83-57,16.13-16.14,38.27-23.63,59.27-23.56h0l22.17-.76c1.26,0,2.73.12,4,.12,15.55,0,28.16-12.13,28.16-27.69S1475.75,336.43,1460.2,336.43Z" transform="translate(-250.28 -250.04)"/></svg>