<?xml version="1.0" standalone="no"?><!-- Generator: Gravit.io --><svg xmlns="http://www.w3.org/2000/svg" xmlns:xlink="http://www.w3.org/1999/xlink" style="isolation:isolate" viewBox="105.629 345.517 28.854 28.854" width="28.854" height="28.854"><g id="play"><path d=" M 120.056 345.517 C 112.089 345.517 105.629 351.977 105.629 359.944 C 105.629 367.911 112.089 374.371 120.056 374.371 C 128.023 374.371 134.483 367.911 134.483 359.944 C 134.483 351.977 128.023 345.517 120.056 345.517 Z  M 125.691 360.328 C 125.691 360.328 117.478 367.316 117.478 367.316 C 117.36 367.42 117.216 367.468 117.074 367.468 C 116.769 367.468 116.482 367.254 116.482 366.932 C 116.482 366.932 116.482 352.954 116.482 352.954 C 116.482 352.632 116.769 352.417 117.074 352.417 C 117.216 352.417 117.36 352.463 117.478 352.57 C 117.478 352.57 125.691 359.557 125.691 359.557 C 125.931 359.769 125.931 360.116 125.691 360.328 Z " fill="rgb(209,209,209)"/></g></svg>