<?xml version="1.0" encoding="UTF-8" standalone="no"?>
<!-- Generator: Adobe Illustrator 19.0.0, SVG Export Plug-In . SVG Version: 6.00 Build 0)  -->

<svg
   xmlns:dc="http://purl.org/dc/elements/1.1/"
   xmlns:cc="http://creativecommons.org/ns#"
   xmlns:rdf="http://www.w3.org/1999/02/22-rdf-syntax-ns#"
   xmlns:svg="http://www.w3.org/2000/svg"
   xmlns="http://www.w3.org/2000/svg"
   xmlns:sodipodi="http://sodipodi.sourceforge.net/DTD/sodipodi-0.dtd"
   xmlns:inkscape="http://www.inkscape.org/namespaces/inkscape"
   version="1.1"
   id="Capa_1"
   x="0px"
   y="0px"
   viewBox="0 0 48 48"
   xml:space="preserve"
   sodipodi:docname="visa.svg"
   width="48"
   height="48"
   inkscape:version="0.92.1 r15371"><metadata
     id="metadata69"><rdf:RDF><cc:Work
         rdf:about=""><dc:format>image/svg+xml</dc:format><dc:type
           rdf:resource="http://purl.org/dc/dcmitype/StillImage" /><dc:title></dc:title></cc:Work></rdf:RDF></metadata><defs
     id="defs67" /><sodipodi:namedview
     pagecolor="#ffffff"
     bordercolor="#666666"
     borderopacity="1"
     objecttolerance="10"
     gridtolerance="10"
     guidetolerance="10"
     inkscape:pageopacity="0"
     inkscape:pageshadow="2"
     inkscape:window-width="1366"
     inkscape:window-height="683"
     id="namedview65"
     showgrid="false"
     inkscape:zoom="0.46825397"
     inkscape:cx="-117.45763"
     inkscape:cy="252"
     inkscape:window-x="0"
     inkscape:window-y="0"
     inkscape:window-maximized="1"
     inkscape:current-layer="Capa_1" /><g
     id="g3757"
     transform="matrix(0.0952381,0,0,0.0952381,-1.2e-6,43.428572)"><polygon
       transform="translate(0,-456)"
       id="polygon2"
       points="225.6,324.4 184.8,324.4 210.4,180.4 250.4,180.4 "
       style="fill:#3c58bf" /><polygon
       transform="translate(0,-456)"
       id="polygon4"
       points="225.6,324.4 184.8,324.4 217.6,180.4 250.4,180.4 "
       style="fill:#293688" /><path
       inkscape:connector-curvature="0"
       id="path6"
       d="m 370.4,-274 c -8,-3.2 -20.8,-6.4 -36.8,-6.4 -40,0 -68.8,20 -68.8,48.8 0,21.6 20,32.8 36,40 16,7.2 20.8,12 20.8,18.4 0,9.6 -12.8,14.4 -24,14.4 -16,0 -24.8,-2.4 -38.4,-8 l -5.6,-2.4 -5.6,32.8 c 9.6,4 27.2,8 45.6,8 42.4,0 70.4,-20 70.4,-50.4 0,-16.8 -10.4,-29.6 -34.4,-40 -14.4,-7.2 -23.2,-11.2 -23.2,-18.4 0,-6.4 7.2,-12.8 23.2,-12.8 13.6,0 23.2,2.4 30.4,5.6 l 4,1.6 z"
       style="fill:#3c58bf" /><path
       inkscape:connector-curvature="0"
       id="path8"
       d="m 370.4,-274 c -8,-3.2 -20.8,-6.4 -36.8,-6.4 -40,0 -61.6,20 -61.6,48.8 0,21.6 12.8,32.8 28.8,40 16,7.2 20.8,12 20.8,18.4 0,9.6 -12.8,14.4 -24,14.4 -16,0 -24.8,-2.4 -38.4,-8 l -5.6,-2.4 -5.6,32.8 c 9.6,4 27.2,8 45.6,8 42.4,0 70.4,-20 70.4,-50.4 0,-16.8 -10.4,-29.6 -34.4,-40 -14.4,-7.2 -23.2,-11.2 -23.2,-18.4 0,-6.4 7.2,-12.8 23.2,-12.8 13.6,0 23.2,2.4 30.4,5.6 l 4,1.6 z"
       style="fill:#293688" /><path
       inkscape:connector-curvature="0"
       id="path10"
       d="m 439.2,-275.6 c -9.6,0 -16.8,0.8 -20.8,10.4 l -60,133.6 h 43.2 l 8,-24 h 51.2 l 4.8,24 H 504 l -33.6,-144 z m -18.4,96 c 2.4,-7.2 16,-42.4 16,-42.4 0,0 3.2,-8.8 5.6,-14.4 l 2.4,13.6 c 0,0 8,36 9.6,44 h -33.6 z"
       style="fill:#3c58bf" /><path
       inkscape:connector-curvature="0"
       id="path12"
       d="m 448.8,-275.6 c -9.6,0 -16.8,0.8 -20.8,10.4 l -69.6,133.6 h 43.2 l 8,-24 h 51.2 l 4.8,24 H 504 l -33.6,-144 z m -28,96 c 3.2,-8 16,-42.4 16,-42.4 0,0 3.2,-8.8 5.6,-14.4 l 2.4,13.6 c 0,0 8,36 9.6,44 h -33.6 z"
       style="fill:#293688" /><path
       inkscape:connector-curvature="0"
       id="path14"
       d="m 111.2,-174.8 -4,-20.8 c -7.2,-24 -30.4,-50.4 -56,-63.2 l 36,128 h 43.2 l 64.8,-144 H 152 Z"
       style="fill:#3c58bf" /><path
       inkscape:connector-curvature="0"
       id="path16"
       d="m 111.2,-174.8 -4,-20.8 c -7.2,-24 -30.4,-50.4 -56,-63.2 l 36,128 h 43.2 l 64.8,-144 H 160 Z"
       style="fill:#293688" /><path
       inkscape:connector-curvature="0"
       id="path18"
       d="m 0,-275.6 7.2,1.6 c 51.2,12 86.4,42.4 100,78.4 l -14.4,-68 c -2.4,-9.6 -9.6,-12 -18.4,-12 z"
       style="fill:#ffbc00" /><path
       inkscape:connector-curvature="0"
       id="path20"
       d="m 0,-275.6 v 0 c 51.2,12 93.6,43.2 107.2,79.2 l -13.6,-56.8 c -2.4,-9.6 -10.4,-15.2 -19.2,-15.2 z"
       style="fill:#f7981d" /><path
       inkscape:connector-curvature="0"
       id="path22"
       d="m 0,-275.6 v 0 c 51.2,12 93.6,43.2 107.2,79.2 l -9.6,-31.2 c -2.4,-9.6 -5.6,-19.2 -16.8,-23.2 z"
       style="fill:#ed7c00" /><g
       transform="translate(0,-456)"
       id="g32"><path
         inkscape:connector-curvature="0"
         id="path24"
         d="m 151.2,276.4 -27.2,-27.2 -12.8,30.4 -3.2,-20 c -7.2,-24 -30.4,-50.4 -56,-63.2 l 36,128 h 43.2 z"
         style="fill:#051244" /><polygon
         id="polygon26"
         points="191.2,289.2 184.8,324.4 225.6,324.4 "
         style="fill:#051244" /><path
         inkscape:connector-curvature="0"
         id="path28"
         d="m 317.6,274.8 v 0 c 3.2,3.2 4.8,5.6 4,8.8 0,9.6 -12.8,14.4 -24,14.4 -16,0 -24.8,-2.4 -38.4,-8 l -5.6,-2.4 -5.6,32.8 c 9.6,4 27.2,8 45.6,8 25.6,0 46.4,-7.2 58.4,-20 z"
         style="fill:#051244" /><path
         inkscape:connector-curvature="0"
         id="path30"
         d="m 364,324.4 h 37.6 l 8,-24 h 51.2 l 4.8,24 H 504 l -13.6,-58.4 -48,-46.4 2.4,12.8 c 0,0 8,36 9.6,44 h -33.6 c 3.2,-8 16,-42.4 16,-42.4 0,0 3.2,-8.8 5.6,-14.4"
         style="fill:#051244" /></g></g><g
     id="g34"
     transform="translate(0,-456)" /><g
     id="g36"
     transform="translate(0,-456)" /><g
     id="g38"
     transform="translate(0,-456)" /><g
     id="g40"
     transform="translate(0,-456)" /><g
     id="g42"
     transform="translate(0,-456)" /><g
     id="g44"
     transform="translate(0,-456)" /><g
     id="g46"
     transform="translate(0,-456)" /><g
     id="g48"
     transform="translate(0,-456)" /><g
     id="g50"
     transform="translate(0,-456)" /><g
     id="g52"
     transform="translate(0,-456)" /><g
     id="g54"
     transform="translate(0,-456)" /><g
     id="g56"
     transform="translate(0,-456)" /><g
     id="g58"
     transform="translate(0,-456)" /><g
     id="g60"
     transform="translate(0,-456)" /><g
     id="g62"
     transform="translate(0,-456)" /></svg>