<?xml version="1.0" standalone="no"?>
<!DOCTYPE svg PUBLIC "-//W3C//DTD SVG 20010904//EN"
 "http://www.w3.org/TR/2001/REC-SVG-20010904/DTD/svg10.dtd">
<svg version="1.0" xmlns="http://www.w3.org/2000/svg"
 width="700.000000pt" height="700.000000pt" viewBox="0 0 700.000000 700.000000"
 preserveAspectRatio="xMidYMid meet">
<metadata>
Created by potrace 1.11, written by Peter Selinger 2001-2013
</metadata>
<g transform="translate(0.000000,700.000000) scale(0.100000,-0.100000)"
fill="#000000" stroke="none">
<path d="M1696 4417 c-44 -4 -85 -12 -90 -16 -6 -5 -30 -12 -53 -16 -24 -4
-43 -11 -43 -16 0 -5 -8 -9 -17 -9 -22 0 -139 -57 -179 -87 -17 -13 -36 -23
-42 -23 -6 0 -12 -3 -14 -7 -1 -5 -25 -26 -53 -48 -27 -21 -53 -44 -57 -50 -4
-6 -23 -29 -42 -50 -20 -22 -46 -51 -59 -65 -12 -14 -28 -36 -35 -50 -19 -37
-36 -66 -49 -81 -6 -8 -14 -29 -18 -46 -3 -18 -11 -33 -15 -33 -5 0 -12 -17
-16 -37 -4 -21 -10 -42 -14 -48 -8 -9 -16 -43 -40 -165 -11 -57 -5 -307 8
-323 5 -7 13 -36 17 -64 4 -29 11 -53 16 -53 5 0 9 -8 9 -17 1 -10 9 -36 20
-58 11 -22 19 -44 20 -49 0 -11 70 -127 87 -144 7 -7 13 -17 13 -21 0 -29 290
-281 324 -281 6 0 28 -9 49 -20 20 -11 48 -20 61 -20 13 0 26 -6 29 -12 5 -17
347 -18 368 -2 8 6 31 14 51 18 20 4 50 13 65 21 15 8 33 15 40 15 11 0 59 21
114 50 9 5 33 12 53 15 20 4 36 11 36 15 0 4 16 11 36 15 20 3 44 10 53 15 29
17 135 36 309 59 76 9 256 -10 309 -35 17 -7 36 -14 41 -14 16 0 76 -34 85
-47 4 -7 13 -13 18 -13 6 0 17 -7 25 -15 25 -25 34 -17 18 15 -9 17 -20 30
-25 30 -5 0 -9 6 -9 14 0 14 -183 206 -197 206 -5 0 -20 11 -35 25 -28 26
-127 75 -150 75 -8 0 -18 4 -23 9 -38 36 -401 62 -421 29 -3 -4 -20 -8 -38 -8
-18 0 -62 -9 -96 -20 -34 -11 -69 -20 -76 -20 -8 0 -14 -4 -14 -8 0 -4 -27
-14 -60 -20 -33 -7 -60 -16 -60 -21 0 -10 -92 -31 -137 -31 -77 0 -208 49
-283 106 -57 43 -120 109 -120 125 0 5 -4 9 -9 9 -12 0 -36 47 -69 135 -22 60
-26 86 -26 185 0 95 4 125 22 175 28 74 64 145 74 145 5 0 8 5 8 10 0 11 63
77 113 118 79 65 220 112 335 112 114 0 257 -43 319 -95 6 -5 30 -23 53 -40
23 -16 61 -57 83 -90 91 -132 111 -193 111 -340 0 -117 -12 -165 -68 -269 -14
-27 -26 -49 -26 -50 0 -1 57 0 127 2 128 3 213 -10 288 -44 26 -12 32 -11 43
3 6 9 12 25 12 34 0 10 4 20 9 24 6 3 13 27 16 53 4 26 11 56 16 67 23 48 -2
443 -31 480 -4 6 -10 27 -14 47 -4 20 -10 38 -14 40 -4 2 -25 38 -46 81 -22
42 -43 77 -48 77 -4 0 -8 6 -8 13 0 17 -34 58 -115 141 -93 93 -115 111 -200
155 -16 9 -32 18 -35 21 -12 12 -99 50 -114 50 -9 0 -16 4 -16 9 0 6 -20 13
-45 17 -25 3 -47 10 -50 14 -12 19 -260 30 -389 17z"/>
<path d="M2974 3566 c-11 -47 0 -474 14 -488 6 -6 12 -19 12 -28 0 -27 72 -96
115 -110 46 -15 149 -19 217 -7 34 6 58 18 83 42 19 19 35 39 35 45 0 5 4 10
10 10 5 0 13 18 16 40 4 22 11 43 15 46 5 3 9 105 9 228 0 237 -2 246 -50 246
-48 0 -50 -8 -50 -258 0 -268 -2 -277 -77 -316 -36 -18 -163 -23 -163 -6 0 6
-6 10 -14 10 -8 0 -28 17 -45 37 l-31 38 0 231 c0 128 -3 239 -6 248 -4 11
-19 16 -45 16 -32 0 -40 -4 -45 -24z"/>
<path d="M3631 3577 c-8 -11 -11 -99 -9 -328 l3 -314 45 0 45 0 0 325 0 325
-36 3 c-22 2 -40 -2 -48 -11z"/>
<path d="M3890 3550 c0 -21 -4 -61 -10 -87 -8 -42 -20 -189 -37 -455 l-5 -78
41 0 c40 0 41 1 41 36 0 19 5 54 10 77 6 23 14 110 18 192 l7 150 83 -166 c45
-92 82 -172 82 -178 0 -6 4 -11 8 -11 5 0 15 -19 22 -42 13 -47 24 -58 55 -58
16 0 29 19 58 83 21 45 42 89 47 97 5 8 19 35 31 60 11 25 29 62 40 83 10 21
19 44 19 52 0 8 4 15 9 15 5 0 13 15 17 33 l7 32 12 -40 c7 -22 15 -114 19
-204 9 -199 13 -211 62 -211 l37 0 -7 123 c-7 118 -21 303 -34 457 l-7 75 -30
0 c-24 0 -34 -7 -52 -40 -44 -79 -92 -181 -98 -207 -4 -16 -11 -28 -15 -28 -5
0 -11 -13 -15 -30 -4 -16 -10 -30 -15 -30 -5 0 -11 -13 -15 -30 -4 -16 -10
-30 -15 -30 -5 0 -11 -13 -15 -30 -4 -16 -10 -30 -15 -30 -5 0 -11 -13 -15
-30 -6 -26 -8 -28 -21 -16 -8 8 -14 20 -14 28 0 7 -47 108 -105 224 -58 116
-105 214 -105 218 0 16 -30 36 -54 36 -24 0 -26 -4 -26 -40z"/>
<path d="M4672 3577 c-9 -11 -12 -98 -10 -328 l3 -314 150 1 c134 0 155 3 200
23 58 26 162 130 171 170 3 14 9 34 15 43 14 27 10 138 -6 186 -21 59 -42 90
-89 135 -75 70 -134 88 -307 94 -92 3 -118 1 -127 -10z m308 -101 c25 -14 52
-28 60 -31 48 -18 82 -153 66 -259 -7 -48 -49 -102 -106 -138 -34 -21 -119
-38 -190 -38 l-60 0 0 251 0 252 93 -6 c74 -4 101 -10 137 -31z"/>
<path d="M5295 3568 c-3 -13 -4 -160 -3 -328 l3 -305 195 0 195 0 3 32 c4 41
-2 42 -168 46 l-125 2 -3 103 -3 102 106 0 105 0 0 40 0 40 -105 0 -105 0 0
105 0 105 135 0 135 0 0 24 c0 57 2 56 -186 56 -172 0 -174 0 -179 -22z"/>
<path d="M5760 3260 l0 -330 45 0 45 0 0 145 0 145 50 0 c35 0 50 -4 50 -13 0
-8 9 -22 20 -32 11 -10 20 -24 20 -32 0 -7 4 -13 9 -13 5 0 28 -29 51 -65 23
-36 46 -65 51 -65 5 0 9 -6 9 -13 0 -28 45 -57 88 -57 23 0 42 5 42 10 0 15
-51 90 -61 90 -5 0 -9 5 -9 11 0 6 -17 32 -37 57 -21 26 -41 51 -46 57 -4 5
-16 21 -27 34 -22 27 -27 61 -8 61 6 0 29 19 51 42 l39 42 -4 77 c-3 76 -4 78
-46 118 -24 23 -51 41 -62 41 -10 0 -22 5 -25 10 -4 6 -57 10 -126 10 l-119 0
0 -330z m265 216 c19 -21 25 -38 25 -75 0 -26 -6 -55 -13 -65 -15 -20 -73 -35
-139 -36 l-48 0 0 106 0 107 75 -5 c65 -4 78 -8 100 -32z"/>
</g>
</svg>
