<?xml version="1.0" encoding="UTF-8" standalone="no"?>
<!-- Generator: Gravit.io -->

<svg
   xmlns:dc="http://purl.org/dc/elements/1.1/"
   xmlns:cc="http://creativecommons.org/ns#"
   xmlns:rdf="http://www.w3.org/1999/02/22-rdf-syntax-ns#"
   xmlns:svg="http://www.w3.org/2000/svg"
   xmlns="http://www.w3.org/2000/svg"
   xmlns:sodipodi="http://sodipodi.sourceforge.net/DTD/sodipodi-0.dtd"
   xmlns:inkscape="http://www.inkscape.org/namespaces/inkscape"
   style="isolation:isolate"
   viewBox="69.712 45 171.305 50"
   width="171.30499"
   height="50"
   version="1.1"
   id="svg22"
   sodipodi:docname="logo-white.svg"
   inkscape:version="0.92.3 (2405546, 2018-03-11)">
  <metadata
     id="metadata28">
    <rdf:RDF>
      <cc:Work
         rdf:about="">
        <dc:format>image/svg+xml</dc:format>
        <dc:type
           rdf:resource="http://purl.org/dc/dcmitype/StillImage" />
        <dc:title></dc:title>
      </cc:Work>
    </rdf:RDF>
  </metadata>
  <defs
     id="defs26" />
  <sodipodi:namedview
     pagecolor="#ffffff"
     bordercolor="#666666"
     borderopacity="1"
     objecttolerance="10"
     gridtolerance="10"
     guidetolerance="10"
     inkscape:pageopacity="0"
     inkscape:pageshadow="2"
     inkscape:window-width="1920"
     inkscape:window-height="1004"
     id="namedview24"
     showgrid="false"
     fit-margin-top="0"
     fit-margin-left="0"
     fit-margin-right="0"
     fit-margin-bottom="0"
     inkscape:zoom="1.6390735"
     inkscape:cx="110.05653"
     inkscape:cy="25"
     inkscape:window-x="1920"
     inkscape:window-y="0"
     inkscape:window-maximized="1"
     inkscape:current-layer="svg22" />
  <path
     style="fill:#da0046"
     inkscape:connector-curvature="0"
     id="path2"
     d="m 201.00918,63.98697 c -2.583,-2.579 -6.754,-2.62 -9.386,-0.092 l -0.011,-0.011 -9.601,9.598 0.008,0.009 -0.019,0.019 c -1.717,1.69 -2.395,4.172 -1.778,6.5 0.618,2.329 2.437,4.148 4.766,4.766 2.328,0.617 4.81,-0.061 6.5,-1.778 l 0.02,-0.02 0.024,0.025 9.598,-9.598 -0.027,-0.027 c 2.531,-2.634 2.488,-6.808 -0.094,-9.391 z"
     inkscape:export-xdpi="90"
     inkscape:export-ydpi="90" />
  <path
     style="fill:#8fff8b"
     inkscape:connector-curvature="0"
     id="path4"
     d="m 229.05218,56.96497 c -2.615,-2.615 -6.854,-2.621 -9.476,-0.012 l -0.008,-0.008 -16.522,16.522 0.009,0.01 c -2.561,2.629 -2.533,6.828 0.062,9.423 2.595,2.595 6.794,2.623 9.423,0.062 l 0.026,0.026 16.523,-16.523 -0.025,-0.024 c 2.608,-2.622 2.603,-6.86 -0.012,-9.476 z"
     inkscape:export-xdpi="90"
     inkscape:export-ydpi="90" />
  <path
     style="fill:#ffffff;fill-opacity:1"
     inkscape:connector-curvature="0"
     id="path6"
     d="m 155.65118,78.21097 c -0.043,0.043 -0.081,0.087 -0.122,0.133 -2.021,1.922 -5.011,2.414 -7.541,1.24 l 10.934,-10.934 v 0 l 0.01,-0.009 c 0.434,-0.434 0.678,-1.023 0.678,-1.637 0,-0.615 -0.244,-1.204 -0.678,-1.638 -0.037,-0.037 -0.075,-0.072 -0.113,-0.105 -4.499,-4.384 -11.694,-4.307 -16.098,0.172 -4.403,4.479 -4.357,11.675 0.103,16.098 4.46,4.422 11.656,4.407 16.098,-0.034 v 0 l 0.01,-0.009 c 0.888,-0.907 0.88,-2.36 -0.018,-3.257 -0.897,-0.898 -2.35,-0.905 -3.257,-0.018 z m -9.6,-9.582 c 2.018,-2.019 5.084,-2.56 7.671,-1.353 l -9.023,9.022 c -1.206,-2.587 -0.666,-5.651 1.352,-7.669 z"
     inkscape:export-xdpi="90"
     inkscape:export-ydpi="90" />
  <path
     style="fill:#ffffff;fill-opacity:1"
     inkscape:connector-curvature="0"
     id="path8"
     d="m 135.60518,62.01997 c -0.579,-0.208 -1.217,-0.177 -1.773,0.085 -0.556,0.263 -0.985,0.736 -1.192,1.315 -0.015,0.039 -0.027,0.081 -0.039,0.117 l -5.816,15.665 -5.816,-15.667 c -0.012,-0.039 -0.025,-0.081 -0.039,-0.118 -0.427,-1.208 -1.752,-1.841 -2.96,-1.414 -1.208,0.427 -1.841,1.752 -1.414,2.96 h -0.004 l 6.856,18.466 c 0.237,0.667 0.76,1.192 1.426,1.431 0.352,0.127 0.716,0.135 1.064,0.135 h 1.766 c 0.349,0 0.712,-0.008 1.064,-0.135 0.665,-0.236 1.189,-0.759 1.426,-1.424 l 6.857,-18.472 v 0 c 0.416,-1.201 -0.211,-2.513 -1.406,-2.944 z"
     inkscape:export-xdpi="90"
     inkscape:export-ydpi="90" />
  <path
     style="fill:#ffffff;fill-opacity:1"
     inkscape:connector-curvature="0"
     id="path10"
     d="m 102.69418,82.16997 v -24.824 h -0.037 c 0,-1.292 -1.047,-2.339 -2.338,-2.339 -1.291,0 -2.338,1.047 -2.338,2.339 h 0.015 v 6.846 c -1.539,-1.196 -3.521,-1.905 -5.446,-2.129 -3.513,-0.44 -7.033,0.767 -9.537,3.271 l 0.039,0.041 c -4.456,4.484 -4.453,11.725 0.007,16.205 l -0.037,0.037 c 4.035,3.994 10.37,4.474 14.961,1.134 0.082,1.274 1.159,2.254 2.435,2.215 1.276,-0.039 2.292,-1.083 2.295,-2.36 0.003,-0.153 0.143,-0.295 -0.019,-0.436 z m -16.325,-3.863 c -2.229,-2.259 -2.577,-5.767 -0.837,-8.421 1.741,-2.653 5.098,-3.73 8.057,-2.586 2.96,1.145 4.719,4.201 4.221,7.335 -0.498,3.134 -3.116,5.495 -6.285,5.666 -1.923,0.091 -3.795,-0.633 -5.156,-1.994 z"
     inkscape:export-xdpi="90"
     inkscape:export-ydpi="90" />
  <path
     style="fill:#ffffff;fill-opacity:1"
     inkscape:connector-curvature="0"
     id="path12"
     d="m 83.02418,81.61697 v 0 l -0.008,-0.007 z"
     inkscape:export-xdpi="90"
     inkscape:export-ydpi="90" />
  <path
     style="fill:#ffffff;fill-opacity:1"
     inkscape:connector-curvature="0"
     id="path14"
     d="m 111.94318,64.21497 c -0.026,-0.825 -0.498,-1.571 -1.232,-1.948 -0.734,-0.376 -1.616,-0.324 -2.3,0.136 -0.685,0.461 -1.066,1.257 -0.994,2.08 v 17.938 c -0.1,0.836 0.271,1.657 0.963,2.134 0.693,0.478 1.593,0.531 2.338,0.139 0.744,-0.391 1.21,-1.163 1.209,-2.004 0,-0.017 0,-0.033 0,-0.049 h 0.02 v -18.346 h -0.005 c 0,-0.027 0.001,-0.054 0.001,-0.08 z"
     inkscape:export-xdpi="90"
     inkscape:export-ydpi="90" />
  <path
     style="fill:#ffffff;fill-opacity:1"
     inkscape:connector-curvature="0"
     id="path16"
     d="m 109.71518,59.73997 c 0.936,0 1.781,-0.564 2.139,-1.429 0.359,-0.865 0.16,-1.861 -0.502,-2.523 -0.662,-0.662 -1.658,-0.86 -2.523,-0.501 -0.865,0.359 -1.429,1.203 -1.428,2.14 0,1.277 1.036,2.313 2.314,2.313 z"
     inkscape:export-xdpi="90"
     inkscape:export-ydpi="90" />
  <path
     style="fill:#ffffff;fill-opacity:1"
     inkscape:connector-curvature="0"
     id="path18"
     d="m 177.70818,61.99697 v 0 l -2.122,-0.018 v 0 c -2.431,0 -4.799,0.778 -6.756,2.221 -0.045,-1.215 -1.081,-2.18 -2.304,-2.18 -1.252,0 -2.287,0.982 -2.287,2.233 0,0 -0.019,-0.023 -0.019,-0.023 h 0.027 v 18.179 c 0,0.088 -0.03,0.177 -0.03,0.268 0.023,1.242 1.037,2.237 2.279,2.237 1.243,0 2.256,-0.995 2.28,-2.237 0,-0.055 0.007,-0.111 0.007,-0.162 v -9.457 h -0.008 c 0.015,-1.62 0.724,-3.33 2.011,-4.616 1.306,-1.308 3.099,-1.914 4.8,-1.909 v 0 l 1.796,-0.061 c 0.102,0 0.221,0.01 0.324,0.01 1.259,0 2.281,-0.983 2.281,-2.243 0,-1.26 -1.019,-2.242 -2.279,-2.242 z"
     inkscape:export-xdpi="90"
     inkscape:export-ydpi="90" />
</svg>
